<svg width="53" height="40" viewBox="0 0 53 40" fill="none" xmlns="http://www.w3.org/2000/svg">
<g clip-path="url(#clip0_945_8694)">
<path d="M47.5401 12.1797H37.2734C37.8715 15.6309 41.1608 18.8792 44.7492 18.8792H52.9227C53.0224 18.5746 53.0223 18.0671 53.0223 17.7626C53.0223 14.7174 50.5304 12.1797 47.5401 12.1797Z" fill="url(#paint0_linear_945_8694)"/>
<path d="M38.1719 19.4883V27.9134H43.1557V23.4471H47.5415C49.9337 23.4471 52.0269 21.7214 52.7247 19.4883H38.1719Z" fill="#4FAD50"/>
<path d="M20.627 12.1797V27.8118H25.0127C25.0127 27.8118 26.1092 27.8118 26.7072 26.6952C29.6975 20.7063 30.5946 18.8792 30.5946 18.8792H31.1927V27.8118H36.1765V12.1797H31.7907C31.7907 12.1797 30.6943 12.2812 30.0962 13.2963C27.6043 18.4731 26.2089 21.1123 26.2089 21.1123H25.6108V12.1797H20.627Z" fill="#4FAD50"/>
<path d="M-0.304688 27.9134V12.2813H4.67914C4.67914 12.2813 6.07463 12.2812 6.87204 14.5144C8.86557 20.4018 9.06494 21.2139 9.06494 21.2139C9.06494 21.2139 9.46363 19.7928 11.2578 14.5144C12.0552 12.2812 13.4507 12.2813 13.4507 12.2813H18.4345V27.9134H13.4507V19.4883H12.8526L10.0617 27.9134H7.86881L5.07788 19.4883H4.47981V27.9134H-0.304688Z" fill="#4FAD50"/>
</g>
<defs>
<linearGradient id="paint0_linear_945_8694" x1="37.2557" y1="15.5774" x2="52.987" y2="15.5774" gradientUnits="userSpaceOnUse">
<stop stop-color="#27B1E6"/>
<stop offset="1" stop-color="#148ACA"/>
</linearGradient>
<clipPath id="clip0_945_8694">
<rect width="53" height="40" fill="white"/>
</clipPath>
</defs>
</svg>
