<svg width="68" height="40" viewBox="0 0 68 40" fill="none" xmlns="http://www.w3.org/2000/svg">
<g clip-path="url(#clip0_945_8693)">
<path d="M63.4049 9.44141H59.1188C57.823 9.44141 56.8262 9.84744 56.2282 11.167L48.0547 30.1489H53.8359C53.8359 30.1489 54.8327 27.6112 55.0321 27.0022C55.6301 27.0022 61.3117 27.0022 62.1091 27.0022C62.3084 27.7127 62.8068 30.0474 62.8068 30.0474H67.99L63.4049 9.44141ZM56.6269 22.7389C57.1253 21.5208 58.8198 16.9529 58.8198 16.9529C58.8198 17.0544 59.3181 15.7349 59.5175 15.0243L59.9162 16.8514C59.9162 16.8514 61.0126 21.8253 61.212 22.8404H56.6269V22.7389Z" fill="#3362AB"/>
<path d="M48.4541 23.3477C48.4541 27.611 44.6663 30.4532 38.7854 30.4532C36.2935 30.4532 33.9013 29.9457 32.6055 29.3367L33.4029 24.6673L34.1006 24.9718C35.8948 25.7839 37.0909 26.0884 39.2838 26.0884C40.8786 26.0884 42.5731 25.4794 42.5731 24.0583C42.5731 23.1447 41.8754 22.5357 39.6825 21.5206C37.5893 20.5055 34.7984 18.8814 34.7984 15.9377C34.7984 11.8774 38.6857 9.13672 44.168 9.13672C46.2612 9.13672 48.0553 9.54275 49.1518 10.0503L48.3544 14.5166L47.9557 14.1106C46.9589 13.7045 45.6631 13.2985 43.7692 13.2985C41.676 13.4 40.6793 14.3136 40.6793 15.1256C40.6793 16.0392 41.8754 16.7498 43.7692 17.6633C46.9589 19.1859 48.4541 20.9116 48.4541 23.3477Z" fill="#3362AB"/>
<path d="M-0.1875 9.64431L-0.0878234 9.23828H8.48437C9.68049 9.23828 10.5776 9.64431 10.8766 10.9639L12.7705 20.0996C10.8766 15.2272 6.49083 11.2684 -0.1875 9.64431Z" fill="#F9B50B"/>
<path d="M24.8335 9.44135L16.1616 30.0473H10.2807L5.29688 12.7911C8.88523 15.1258 11.8755 18.78 12.972 21.3177L13.57 23.4493L18.9526 9.33984H24.8335V9.44135Z" fill="#3362AB"/>
<path d="M27.1215 9.33984H32.6037L29.115 30.0473H23.6328L27.1215 9.33984Z" fill="#3362AB"/>
</g>
<defs>
<clipPath id="clip0_945_8693">
<rect width="68" height="40" fill="white"/>
</clipPath>
</defs>
</svg>
