<svg width="80" height="80" viewBox="0 0 80 80" fill="none" xmlns="http://www.w3.org/2000/svg">

<path fill-rule="evenodd" stroke="1" stroke-color="#FFFFFF" clip-rule="evenodd" d="M80 10.0211C80 4.48658 75.5228 0 70 0H33C27.4772 0 23 4.48658 23 10.0211V18.0379H50C55.5228 18.0379 60 22.5245 60 28.059V55.1158C60 55.3426 59.9925 55.5677 59.9777 55.7907L64.9768 58.683C66.3102 59.4544 67.9768 58.4902 67.9768 56.9473V47.099H70C75.5229 47.099 80 42.6124 80 37.0779V10.0211Z" fill="#39226B"/>
<path fill-rule="evenodd" stroke="1" stroke-color="#FFFFFF" clip-rule="evenodd" d="M0 31.0469C0 25.524 4.47715 21.0469 10 21.0469H47C52.5228 21.0469 57 25.524 57 31.0469V58.1459C57 63.6687 52.5228 68.1459 47 68.1459H35.0434L15.0207 79.7303C13.6884 80.5011 12.0215 79.5367 12.0215 77.9951V68.1459H10C4.47715 68.1459 0 63.6687 0 58.1459V31.0469ZM20 44.5947C20 47.0852 17.9853 49.1042 15.5 49.1042C13.0147 49.1042 11 47.0852 11 44.5947C11 42.1042 13.0147 40.0852 15.5 40.0852C17.9853 40.0852 20 42.1042 20 44.5947ZM41.5 49.1042C43.9853 49.1042 46 47.0852 46 44.5947C46 42.1042 43.9853 40.0852 41.5 40.0852C39.0147 40.0852 37 42.1042 37 44.5947C37 47.0852 39.0147 49.1042 41.5 49.1042ZM33 44.5947C33 47.0852 30.9853 49.1042 28.5 49.1042C26.0147 49.1042 24 47.0852 24 44.5947C24 42.1042 26.0147 40.0852 28.5 40.0852C30.9853 40.0852 33 42.1042 33 44.5947Z" fill="#A1046B"/>
</svg>
