<svg width="66" height="40" viewBox="0 0 66 40" fill="none" xmlns="http://www.w3.org/2000/svg">
<path d="M65.7352 19.7939C65.7352 30.6552 57.0634 39.5878 46.2983 39.5878C35.6329 39.5878 26.8613 30.6552 26.8613 19.7939C26.8613 8.93264 35.5332 0 46.1986 0C57.0634 0 65.7352 8.93264 65.7352 19.7939Z" fill="#F9B50B"/>
<path d="M39.7195 19.8954C39.7195 18.4743 39.5202 17.0532 39.3208 15.7336H27.3596C27.4593 15.0231 27.6586 14.414 27.858 13.602H38.5234C38.3241 12.8914 38.025 12.1809 37.726 11.4703H28.6554C28.9544 10.7598 29.3532 10.1507 29.7519 9.33867H36.6295C36.2308 8.62811 35.7325 7.91756 35.1344 7.20701H31.3467C31.9447 6.49646 32.5428 5.88742 33.3402 5.17687C29.9512 1.92864 25.3661 0 20.2826 0C9.71686 0.304522 0.945312 8.93264 0.945312 19.7939C0.945312 30.6552 9.61718 39.5878 20.3823 39.5878C25.4658 39.5878 29.9512 37.5577 33.4399 34.411C34.1376 33.8019 34.7357 33.0914 35.4334 32.2793H31.4464C30.948 31.6703 30.4496 30.9597 30.0509 30.2492H36.8289C37.2276 29.6401 37.6263 28.9296 37.9253 28.1175H28.8548C28.5557 27.5085 28.2567 26.7979 28.0574 25.9859H38.7228C39.3208 24.1587 39.7195 22.1286 39.7195 19.8954Z" fill="#C8191C"/>
<path d="M27.2598 24.87L27.5589 23.0428C27.4592 23.0428 27.2598 23.1443 27.0605 23.1443C26.3627 23.1443 26.2631 22.7383 26.3627 22.5353L26.9608 18.881H28.0572L28.3563 16.8509H27.3595L27.5589 15.6328H25.4657C25.4657 15.6328 24.2695 22.5353 24.2695 23.3474C24.2695 24.5654 24.9673 25.1745 25.964 25.1745C26.5621 25.1745 27.0605 24.9715 27.2598 24.87Z" fill="white"/>
<path d="M27.957 21.5201C27.957 24.4638 29.9506 25.1743 31.5454 25.1743C33.0405 25.1743 33.7383 24.8698 33.7383 24.8698L34.137 22.8397C34.137 22.8397 33.0405 23.3472 31.9441 23.3472C29.6515 23.3472 30.0502 21.6216 30.0502 21.6216H34.2367C34.2367 21.6216 34.5357 20.302 34.5357 19.6929C34.5357 18.3733 33.838 16.6477 31.5454 16.6477C29.5519 16.5462 27.957 18.8809 27.957 21.5201ZM31.5454 18.4749C32.6418 18.4749 32.4425 19.7944 32.4425 19.896H30.1499C30.2496 19.7944 30.4489 18.4749 31.5454 18.4749Z" fill="white"/>
<path d="M44.6034 24.8694L45.0022 22.5348C45.0022 22.5348 44.0054 23.0423 43.208 23.0423C41.8125 23.0423 41.1148 21.9257 41.1148 20.6061C41.1148 18.0684 42.3109 16.7488 43.806 16.7488C44.8028 16.7488 45.6999 17.3579 45.6999 17.3579L45.9989 15.1247C45.9989 15.1247 44.8028 14.6172 43.6067 14.6172C41.2144 14.6172 38.9219 16.7488 38.9219 20.7076C38.9219 23.3468 40.118 25.0724 42.6099 25.0724C43.507 25.1739 44.6034 24.8694 44.6034 24.8694Z" fill="white"/>
<path d="M15.9968 16.5469C14.6013 16.5469 13.5048 16.9529 13.5048 16.9529L13.2058 18.78C13.2058 18.78 14.1029 18.374 15.4984 18.374C16.1961 18.374 16.7942 18.4755 16.7942 19.0846C16.7942 19.4906 16.6945 19.5921 16.6945 19.5921H15.7974C14.0032 19.5921 12.1094 20.3026 12.1094 22.7388C12.1094 24.6675 13.3055 25.0735 14.1029 25.0735C15.4984 25.0735 16.1961 24.1599 16.2958 24.1599L16.1961 24.972H17.8906L18.688 19.1861C18.688 16.6484 16.6945 16.5469 15.9968 16.5469ZM16.3955 21.2162C16.3955 21.5207 16.1961 23.2464 15 23.2464C14.4019 23.2464 14.2026 22.7388 14.2026 22.4343C14.2026 21.9268 14.5016 21.2162 16.0964 21.2162C16.2958 21.2162 16.3955 21.2162 16.3955 21.2162Z" fill="white"/>
<path d="M20.6794 25.0734C21.1778 25.0734 23.7694 25.1749 23.7694 22.3327C23.7694 19.6935 21.2775 20.2011 21.2775 19.186C21.2775 18.6785 21.6762 18.4755 22.3739 18.4755C22.6729 18.4755 23.7694 18.577 23.7694 18.577L24.0684 16.6483C24.0684 16.6483 23.3707 16.4453 22.0749 16.4453C20.5797 16.4453 18.9849 17.0544 18.9849 19.186C18.9849 21.6222 21.5765 21.4192 21.5765 22.3327C21.5765 22.9418 20.8788 23.0433 20.3804 23.0433C19.4833 23.0433 18.4865 22.7388 18.4865 22.7388L18.1875 24.6674C18.3869 24.8704 18.9849 25.0734 20.6794 25.0734Z" fill="white"/>
<path d="M61.7481 14.9219L61.3494 17.7641C61.3494 17.7641 60.552 16.749 59.3559 16.749C57.462 16.749 55.8672 19.0837 55.8672 21.8244C55.8672 23.55 56.6646 25.2756 58.4588 25.2756C59.6549 25.2756 60.4523 24.4636 60.4523 24.4636L60.3526 25.1741H62.4458L63.941 15.1249L61.7481 14.9219ZM60.7513 20.4033C60.7513 21.5198 60.253 23.0425 59.0568 23.0425C58.3591 23.0425 57.9604 22.4334 57.9604 21.3168C57.9604 19.5912 58.6581 18.5761 59.6549 18.5761C60.3526 18.6776 60.7513 19.1852 60.7513 20.4033Z" fill="white"/>
<path d="M4.73181 24.9711L5.92793 17.4596L6.12729 24.9711H7.52276L10.214 17.4596L9.11759 24.9711H11.3105L13.005 14.9219H9.61597L7.52276 21.1138L7.42308 14.9219H4.43278L2.73828 24.9711H4.73181Z" fill="white"/>
<path d="M36.6285 24.9721C37.2266 21.5208 37.3262 18.6786 38.8214 19.1862C39.0207 17.8666 39.3198 17.2575 39.5191 16.75H39.1204C38.2233 16.75 37.4259 17.9681 37.4259 17.9681L37.6253 16.8515H35.6317L34.3359 24.9721H36.6285Z" fill="white"/>
<path d="M49.3874 16.5469C47.9919 16.5469 46.8955 16.9529 46.8955 16.9529L46.5964 18.78C46.5964 18.78 47.4935 18.374 48.889 18.374C49.5867 18.374 50.1848 18.4755 50.1848 19.0846C50.1848 19.4906 50.0851 19.5921 50.0851 19.5921H49.188C47.3939 19.5921 45.5 20.3026 45.5 22.7388C45.5 24.6675 46.6961 25.0735 47.4935 25.0735C48.889 25.0735 49.5867 24.1599 49.6864 24.1599L49.5867 24.972H51.4806L52.278 19.1861C52.278 16.6484 50.0851 16.5469 49.3874 16.5469ZM49.8858 21.2162C49.8858 21.5207 49.6864 23.2464 48.4903 23.2464C47.8922 23.2464 47.6929 22.7388 47.6929 22.4343C47.6929 21.9268 47.9919 21.2162 49.5867 21.2162C49.7861 21.2162 49.7861 21.2162 49.8858 21.2162Z" fill="white"/>
<path d="M53.8746 24.9721C54.4727 21.5208 54.5723 18.6786 56.0675 19.1862C56.2668 17.8666 56.5659 17.2575 56.7652 16.75H56.3665C55.4694 16.75 54.672 17.9681 54.672 17.9681L54.8714 16.8515H52.8778L51.582 24.9721H53.8746Z" fill="white"/>
</svg>
