<svg width="66" height="60" viewBox="0 0 66 60" fill="none" xmlns="http://www.w3.org/2000/svg">
<circle cx="36" cy="30" r="27" fill="#1CC8FF"/>
<circle cx="36" cy="30" r="27" fill="black" fill-opacity="0.2"/>
<circle cx="36" cy="30" r="27" stroke="white" stroke-width="6"/>
<path d="M49 17.9565L44.0964 42.876C44.0964 42.876 43.4103 44.6037 41.5256 43.7751L30.2117 35.0306L30.1592 35.0048C31.6875 33.6215 43.5381 22.8807 44.0561 22.3938C44.8579 21.6398 44.3601 21.1909 43.4292 21.7605L25.9242 32.9665L19.1709 30.6759C19.1709 30.6759 18.1081 30.2948 18.0059 29.4662C17.9023 28.6363 19.2059 28.1874 19.2059 28.1874L46.7372 17.3001C46.7372 17.3001 49 16.2979 49 17.9565Z" fill="#FEFEFE"/>
</svg>
